<?xml version="1.0" encoding="UTF-8" standalone="no"?>
<!-- Created with Inkscape (http://www.inkscape.org/) -->

<svg
   xmlns:dc="http://purl.org/dc/elements/1.1/"
   xmlns:cc="http://creativecommons.org/ns#"
   xmlns:rdf="http://www.w3.org/1999/02/22-rdf-syntax-ns#"
   xmlns:svg="http://www.w3.org/2000/svg"
   xmlns="http://www.w3.org/2000/svg"
   xmlns:sodipodi="http://sodipodi.sourceforge.net/DTD/sodipodi-0.dtd"
   xmlns:inkscape="http://www.inkscape.org/namespaces/inkscape"
   version="1.1"
   width="16"
   height="16"
   viewBox="0 0 16 16"
   id="Layer_1"
   xml:space="preserve"
   inkscape:version="0.48.2 r9819"
   sodipodi:docname="pasting.svg"
   inkscape:export-filename="/Users/pau/repos/prototype-translate/images/pasting.png"
   inkscape:export-xdpi="90"
   inkscape:export-ydpi="90"><sodipodi:namedview
   pagecolor="#ffffff"
   bordercolor="#666666"
   borderopacity="1"
   objecttolerance="10"
   gridtolerance="10"
   guidetolerance="10"
   inkscape:pageopacity="0"
   inkscape:pageshadow="2"
   inkscape:window-width="1724"
   inkscape:window-height="809"
   id="namedview19"
   showgrid="false"
   inkscape:zoom="8.7192938"
   inkscape:cx="-7.2734328"
   inkscape:cy="2.083882"
   inkscape:window-x="0"
   inkscape:window-y="22"
   inkscape:window-maximized="0"
   inkscape:current-layer="g317" /><metadata
   id="metadata1113"><rdf:RDF><cc:Work
       rdf:about=""><dc:format>image/svg+xml</dc:format><dc:type
         rdf:resource="http://purl.org/dc/dcmitype/StillImage" /><dc:title></dc:title></cc:Work></rdf:RDF></metadata><defs
   id="defs1111">
	
	
	
</defs>

















































































































































































































































































































<g
   transform="translate(-544.01,-155.95389)"
   id="g317">
	
	
<g
   id="g3008"
   transform="matrix(1.1310722,0,0,1.1310722,-72.353165,-21.525143)"><path
     id="path319"
     transform="translate(544.01,155.95389)"
     d="M 4.5625,2.1875 C 4.4378625,2.3121913 4.375,2.467515 4.375,2.65625 c 0,0.215636 0.093871,0.4137891 0.25,0.53125 l 6.75,0 c 0.147277,-0.1173117 0.25,-0.3151245 0.25,-0.53125 l 0,-0.03125 C 11.625297,2.4513836 11.56805,2.3014785 11.46875,2.1875 l -6.90625,0 z M 3.6875,2.25 C 2.9100203,2.4264423 2.3125,3.1128577 2.3125,3.9375 l 0,9.375 c 0,0.95289 0.79541,1.71875 1.75,1.71875 l 7.90625,0 c 0.95338,0 1.71875,-0.76537 1.71875,-1.71875 l 0,-9.375 c 0,-0.8343037 -0.589526,-1.522007 -1.375,-1.6875 0.03957,0.1327974 0.06269,0.2611398 0.0625,0.40625 0,0.205884 -0.04764,0.4185575 -0.125,0.59375 0.26037,0.1137867 0.4375,0.3766175 0.4375,0.6875 l 0,9.375 c 0,0.41262 -0.30613,0.71875 -0.71875,0.71875 l -7.90625,0 c -0.41541,0 -0.75,-0.30564 -0.75,-0.71875 l 0,-9.375 C 3.3125,3.626985 3.4808409,3.3639016 3.75,3.25 3.6660498,3.0718098 3.625,2.8668812 3.625,2.65625 3.625,2.5091506 3.6450033,2.384412 3.6875,2.25 z"
     style="font-size:medium;font-style:normal;font-variant:normal;font-weight:normal;font-stretch:normal;text-indent:0;text-align:start;text-decoration:none;line-height:normal;letter-spacing:normal;word-spacing:normal;text-transform:none;direction:ltr;block-progression:tb;writing-mode:lr-tb;text-anchor:start;baseline-shift:baseline;color:#000000;fill:#414042;fill-opacity:1;fill-rule:nonzero;stroke:none;stroke-width:1;marker:none;visibility:visible;display:inline;overflow:visible;enable-background:accumulate;font-family:Sans;-inkscape-font-specification:Sans"
     inkscape:connector-curvature="0" /><path
     inkscape:connector-curvature="0"
     id="path2986"
     d="m 551.41625,156.98514 c -0.32976,0 -0.605,0.27081 -0.625,0.59375 l -0.0312,0.34375 -0.34375,0 -1.34375,0 c -0.3779,0 -0.6875,0.31003 -0.6875,0.6875 0,0.37882 0.3096,0.65625 0.6875,0.65625 l 5.90625,0 c 0.37925,0 0.65625,-0.27657 0.65625,-0.65625 l 0,-0.0312 c 6.5e-4,-0.37933 -0.27657,-0.65625 -0.65625,-0.65625 l -1.375,0 -0.34375,0 -0.0312,-0.34375 c -0.02,-0.32294 -0.26262,-0.59375 -0.59375,-0.59375 l -1.21875,0 z"
     style="fill:#414042;fill-opacity:1;stroke:none" /></g></g>

























</svg>