<?xml version="1.0" encoding="UTF-8" standalone="no"?>
<!-- Created with Inkscape (http://www.inkscape.org/) -->

<svg
   xmlns:dc="http://purl.org/dc/elements/1.1/"
   xmlns:cc="http://creativecommons.org/ns#"
   xmlns:rdf="http://www.w3.org/1999/02/22-rdf-syntax-ns#"
   xmlns:svg="http://www.w3.org/2000/svg"
   xmlns="http://www.w3.org/2000/svg"
   xmlns:sodipodi="http://sodipodi.sourceforge.net/DTD/sodipodi-0.dtd"
   xmlns:inkscape="http://www.inkscape.org/namespaces/inkscape"
   version="1.1"
   width="16"
   height="16"
   viewBox="0 0 16 16"
   id="Layer_1"
   xml:space="preserve"
   inkscape:version="0.48.2 r9819"
   sodipodi:docname="reverting.svg"><sodipodi:namedview
   pagecolor="#ffffff"
   bordercolor="#666666"
   borderopacity="1"
   objecttolerance="10"
   gridtolerance="10"
   guidetolerance="10"
   inkscape:pageopacity="0"
   inkscape:pageshadow="2"
   inkscape:window-width="1724"
   inkscape:window-height="809"
   id="namedview19"
   showgrid="false"
   inkscape:zoom="6.1654718"
   inkscape:cx="-12.355296"
   inkscape:cy="-3.0238862"
   inkscape:window-x="0"
   inkscape:window-y="22"
   inkscape:window-maximized="0"
   inkscape:current-layer="Layer_1" /><metadata
   id="metadata1113"><rdf:RDF><cc:Work
       rdf:about=""><dc:format>image/svg+xml</dc:format><dc:type
         rdf:resource="http://purl.org/dc/dcmitype/StillImage" /><dc:title /></cc:Work></rdf:RDF></metadata><defs
   id="defs1111">
	
	
	
</defs>

















































































































































































































































































































<g
   id="g3026"
   transform="matrix(1.2917512,0,0,1.2917512,-1.469334,-2.2693575)"><path
     inkscape:connector-curvature="0"
     style="fill:#414042"
     id="path653"
     d="m 7.751115,2.53095 c -2.344,0 -4.339,1.498 -5.093,3.584 l 0.918,0.446 c 0.586,-1.754 2.226,-3.03 4.175,-3.03 2.437,0 4.418,1.982 4.418,4.419 0,2.437 -1.981,4.419 -4.418,4.419 -1.042,0 -1.988,-0.377 -2.745,-0.983 l -0.87,0.589 c 0.96,0.863 2.226,1.394 3.615,1.394 2.987,0 5.418,-2.431 5.418,-5.419 0,-2.988 -2.431,-5.419 -5.418,-5.419 z" /><polygon
     style="fill:#414042"
     id="polygon655"
     transform="translate(-543.34388,-128.61405)"
     points="545.658,131.645 549.321,134.709 544.836,136.349 " /></g>

























</svg>